<?xml version="1.0" standalone="no"?>
<svg xmlns:xlink="http://www.w3.org/1999/xlink" width="128" height="128" viewBox="0 0 24 24" fill="none" xmlns="http://www.w3.org/2000/svg">
<g clip-path="url(#clip0_4528_769)">
<path d="M8.33333 9.33333V6.83333C8.33333 6.61232 8.42113 6.40036 8.57741 6.24408C8.73369 6.0878 8.94565 6 9.16667 6H19.1667C19.3877 6 19.5996 6.0878 19.7559 6.24408C19.9122 6.40036 20 6.61232 20 6.83333V18.5C20 18.721 19.9122 18.933 19.7559 19.0893C19.5996 19.2455 19.3877 19.3333 19.1667 19.3333H16.6667V21.8333C16.6667 22.2933 16.2917 22.6667 15.8275 22.6667H5.83917C5.72927 22.6673 5.62033 22.6463 5.5186 22.6047C5.41687 22.5631 5.32436 22.5019 5.24638 22.4244C5.1684 22.347 5.10649 22.2549 5.06421 22.1535C5.02193 22.052 5.00011 21.9432 5 21.8333L5.0025 10.1667C5.0025 9.70667 5.3775 9.33333 5.84167 9.33333H8.33333ZM6.66917 11L6.66667 21H15V11H6.66917ZM10 9.33333H16.6667V17.6667H18.3333V7.66667H10V9.33333Z" fill="#505050"/>
</g>
<defs>
<clipPath id="clip0_4528_769">
<rect width="24" height="24" fill="white"/>
</clipPath>
</defs>
</svg>